# xmcd CD database file
#
# Track frame offsets:
#	150
#	23494
#	46010
#	75855
#	99936
#	124166
#	146703
#	165055
#
# Disc length: 2467 seconds
#
# Revision: 0
# Processed by: cddbd v1.5.1PL0 Copyright (c) Steve Scherf et al.
# Submitted via: CDex 1.50
#
DISCID=4909a108
DTITLE=Nick Cave and The Bad Seeds - Abattoir Blues
DYEAR=1900
DGENRE=Blues
TTITLE0=Get ready for love
TTITLE1=Cannibal's hymn
TTITLE2=Hiding all away
TTITLE3=Messiah ward
TTITLE4=There she goes, my beautiful world
TTITLE5=Nature boy
TTITLE6=Abattior blues
TTITLE7=Let the bells ring
EXTD=
EXTT0=
EXTT1=
EXTT2=
EXTT3=
EXTT4=
EXTT5=
EXTT6=
EXTT7=
PLAYORDER=
